<svg id="Capa_1" enable-background="new 0 0 512 512" height="512" viewBox="0 0 512 512" width="512" xmlns="http://www.w3.org/2000/svg"><g id="XMLID_278_"><g id="XMLID_279_"><g id="XMLID_325_"><path id="XMLID_326_" d="m417.736 449.928h-76.527c-8.342 0-15.104-6.762-15.104-15.104v-382.634c0-8.342 6.762-15.104 15.104-15.104h76.527c8.342 0 15.104 6.762 15.104 15.104s-6.762 15.104-15.104 15.104h-61.423v352.426h61.423c8.342 0 15.104 6.762 15.104 15.104s-6.763 15.104-15.104 15.104z" fill="#005fe1"/></g><path id="XMLID_323_" d="m417.736 230.417h-165.137c-8.342 0-15.104 6.762-15.104 15.104s6.762 15.104 15.104 15.104h165.137c8.342 0 15.104-6.762 15.104-15.104s-6.763-15.104-15.104-15.104z" fill="#005fe1"/><path d="m417.736 230.417h-61.423v-163.123h61.423c8.342 0 15.104-6.762 15.104-15.104s-6.762-15.104-15.104-15.104h-76.527c-8.342 0-15.104 6.762-15.104 15.104v178.227h-73.506c-8.342 0-15.104 6.762-15.104 15.104h195.345c0-8.342-6.763-15.104-15.104-15.104z" fill="#4895ff"/><path id="XMLID_314_" d="m246.301 0h-188.79c-8.341 0-15.104 6.762-15.104 15.104v481.792c0 8.342 6.762 15.104 15.104 15.104h188.79c8.342 0 15.104-6.762 15.104-15.104v-481.792c0-8.342-6.762-15.104-15.104-15.104z" fill="#ced2e1"/><g id="XMLID_3545_"><path id="XMLID_313_" d="m57.511 0c-8.341 0-15.104 6.762-15.104 15.104v481.792c0 8.342 6.762 15.104 15.104 15.104h94.395v-512z" fill="#dce1ea"/></g><g id="XMLID_310_"><path id="XMLID_311_" d="m439.385 464.528c-16.657 0-30.208-13.551-30.208-30.208s13.551-30.208 30.208-30.208 30.208 13.551 30.208 30.208-13.552 30.208-30.208 30.208z" fill="#eb1d83"/></g><g id="XMLID_303_"><g id="XMLID_308_"><circle id="XMLID_309_" cx="108.883" cy="245.521" fill="#46f8ff" r="15.104"/></g><g id="XMLID_306_"><circle id="XMLID_307_" cx="151.906" cy="245.521" fill="#00d7df" r="15.104"/></g><g id="XMLID_304_"><circle id="XMLID_305_" cx="194.93" cy="245.521" fill="#00d7df" r="15.104"/></g></g><g id="XMLID_301_"><path id="XMLID_302_" d="m196.211 81.391h-88.61c-8.342 0-15.104-6.762-15.104-15.104s6.762-15.104 15.104-15.104h88.61c8.342 0 15.104 6.762 15.104 15.104s-6.762 15.104-15.104 15.104z" fill="#00d7df"/></g><g id="XMLID_299_"><path id="XMLID_300_" d="m196.211 141.807h-88.61c-8.342 0-15.104-6.762-15.104-15.104s6.762-15.104 15.104-15.104h88.61c8.342 0 15.104 6.762 15.104 15.104s-6.762 15.104-15.104 15.104z" fill="#00d7df"/></g><g id="XMLID_297_"><path id="XMLID_298_" d="m196.211 202.223h-88.61c-8.342 0-15.104-6.762-15.104-15.104s6.762-15.104 15.104-15.104h88.61c8.342 0 15.104 6.762 15.104 15.104s-6.762 15.104-15.104 15.104z" fill="#00d7df"/></g><g id="XMLID_293_"><path id="XMLID_294_" d="m151.906 466.039c-25.725 0-46.654-20.929-46.654-46.655 0-25.725 20.929-46.654 46.654-46.654 25.726 0 46.655 20.929 46.655 46.654s-20.929 46.655-46.655 46.655zm0-63.101c-9.068 0-16.446 7.378-16.446 16.446 0 9.069 7.378 16.447 16.446 16.447 9.069 0 16.447-7.378 16.447-16.447 0-9.068-7.378-16.446-16.447-16.446z" fill="#eb1d83"/></g><g id="XMLID_290_"><path id="XMLID_291_" d="m439.385 275.729c-16.657 0-30.208-13.551-30.208-30.208s13.551-30.208 30.208-30.208 30.208 13.551 30.208 30.208-13.552 30.208-30.208 30.208z" fill="#eb1d83"/></g><g id="XMLID_3544_"><path id="XMLID_289_" d="m151.906 402.938c-9.068 0-16.446 7.378-16.446 16.446 0 9.069 7.378 16.447 16.446 16.447z" fill="none"/><path id="XMLID_288_" d="m168.353 419.384c0-9.068-7.377-16.446-16.447-16.446v32.893c9.069-.001 16.447-7.378 16.447-16.447z" fill="none"/><g fill="#46f8ff"><path id="XMLID_287_" d="m136.802 245.521c0 8.342 6.762 15.104 15.104 15.104v-30.208c-8.341 0-15.104 6.762-15.104 15.104z"/><path id="XMLID_286_" d="m107.601 51.183c-8.342 0-15.104 6.762-15.104 15.104s6.762 15.104 15.104 15.104h44.305v-30.208z"/><path id="XMLID_285_" d="m107.601 111.599c-8.342 0-15.104 6.762-15.104 15.104s6.762 15.104 15.104 15.104h44.305v-30.208z"/><path id="XMLID_284_" d="m92.497 187.119c0 8.342 6.762 15.104 15.104 15.104h44.305v-30.208h-44.305c-8.341 0-15.104 6.762-15.104 15.104z"/></g><path id="XMLID_283_" d="m105.252 419.384c0 25.725 20.929 46.655 46.654 46.655v-30.208c-9.068 0-16.446-7.378-16.446-16.447 0-9.068 7.378-16.446 16.446-16.446v-30.208c-25.725 0-46.654 20.929-46.654 46.654z" fill="#f05ca5"/></g><g id="XMLID_280_"><path id="XMLID_281_" d="m439.385 82.398c-16.657 0-30.208-13.551-30.208-30.208s13.551-30.208 30.208-30.208 30.208 13.551 30.208 30.208-13.552 30.208-30.208 30.208z" fill="#f05ca5"/></g></g><g id="XMLID_3543_"><path id="XMLID_2223_" d="m439.385 215.313c-16.655 0-30.204 13.548-30.208 30.202h60.416c-.004-16.654-13.554-30.202-30.208-30.202z" fill="#f05ca5"/></g></g></svg>